<svg xmlns="http://www.w3.org/2000/svg" xmlns:xlink="http://www.w3.org/1999/xlink" width="44" height="30" viewBox="0 0 44 30"><defs><path id="dkhna" d="M499 54.71a2 2 0 0 1 2-2h40a2 2 0 0 1 2 2V55a2 2 0 0 1-2 2h-40a2 2 0 0 1-2-2z"/><path id="dkhnb" d="M499 41.86a2 2 0 0 1 2-2h40a2 2 0 0 1 2 2v.29a2 2 0 0 1-2 2h-40a2 2 0 0 1-2-2z"/><path id="dkhnc" d="M499 29a2 2 0 0 1 2-2h40a2 2 0 0 1 2 2v.29a2 2 0 0 1-2 2h-40a2 2 0 0 1-2-2z"/></defs><g><g transform="translate(-499 -27)"><g><use fill="#4a4b4b" xlink:href="#dkhna"/></g><g><use fill="#4a4b4b" xlink:href="#dkhnb"/></g><g><use fill="#4a4b4b" xlink:href="#dkhnc"/></g></g></g></svg>